<svg width="32" height="32" viewBox="0 0 32 32" fill="none" xmlns="http://www.w3.org/2000/svg">
<path fill-rule="evenodd" clip-rule="evenodd" d="M21.3747 14.9597C21.3747 16.938 22.9782 18.5415 24.9565 18.5415C26.9345 18.5415 28.5381 16.938 28.5381 14.9597C28.5381 12.9817 26.9345 11.3781 24.9565 11.3781C22.9782 11.3781 21.3747 12.9817 21.3747 14.9597ZM16.9025 22.4624C16.9025 24.4405 18.506 26.044 20.484 26.044C22.4621 26.044 24.0658 24.4405 24.0658 22.4624C24.0658 20.4844 22.4621 18.8808 20.484 18.8808C18.506 18.8808 16.9025 20.4844 16.9025 22.4624ZM12.4184 14.9597C12.4184 16.938 14.0221 18.5415 16.0002 18.5415C17.9782 18.5415 19.5818 16.938 19.5818 14.9597C19.5818 12.9817 17.9782 11.3781 16.0002 11.3781C14.0221 11.3781 12.4184 12.9817 12.4184 14.9597ZM7.93455 22.4624C7.93455 24.4405 9.53809 26.044 11.5161 26.044C13.4942 26.044 15.0977 24.4405 15.0977 22.4624C15.0977 20.4844 13.4942 18.8808 11.5161 18.8808C9.53809 18.8808 7.93455 20.4844 7.93455 22.4624ZM7.41339 11.3781C5.43534 11.3781 3.83161 12.9817 3.83161 14.9597C3.83161 16.938 5.43534 18.5415 7.41339 18.5415C9.39145 18.5415 10.995 16.938 10.995 14.9597C10.995 12.9817 9.39145 11.3781 7.41339 11.3781ZM14.2342 8.52336C14.2342 7.13398 13.1079 6.0077 11.7185 6.0077C10.3293 6.0077 9.20303 7.13398 9.20303 8.52336C9.20303 9.91274 10.3293 11.0388 11.7185 11.0388C13.1079 11.0388 14.2342 9.91274 14.2342 8.52336ZM22.7258 8.52336C22.7258 7.13398 21.5995 6.0077 20.2103 6.0077C18.8209 6.0077 17.6946 7.13398 17.6946 8.52336C17.6946 9.91274 18.8209 11.0388 20.2103 11.0388C21.5995 11.0388 22.7258 9.91274 22.7258 8.52336ZM23.4711 5C25.7759 5 27.8623 6.35939 28.799 8.46532C29.6369 10.3484 30.071 12.4506 29.9905 14.663C29.723 22.0192 23.6899 27.9681 16.331 28.1375C8.44759 28.3194 2 21.9834 2 14.1414C2 12.0796 2.44688 10.1226 3.24816 8.36086C4.18505 6.30078 6.26467 5 8.52787 5H23.4711ZM12.4421 8.52338C12.4421 8.92305 12.1181 9.24689 11.7186 9.24689C11.3191 9.24689 10.9951 8.92305 10.9951 8.52338C10.9951 8.1237 11.3191 7.79986 11.7186 7.79986C12.1181 7.79986 12.4421 8.1237 12.4421 8.52338ZM20.2103 9.24689C20.6098 9.24689 20.9338 8.92305 20.9338 8.52338C20.9338 8.1237 20.6098 7.79986 20.2103 7.79986C19.8106 7.79986 19.4868 8.1237 19.4868 8.52338C19.4868 8.92305 19.8106 9.24689 20.2103 9.24689ZM14.9698 14.9597C14.9698 14.3908 15.4312 13.9296 16.0001 13.9296C16.5691 13.9296 17.0303 14.3908 17.0303 14.9597C17.0303 15.5289 16.5691 15.9901 16.0001 15.9901C15.4312 15.9901 14.9698 15.5289 14.9698 14.9597ZM24.9565 13.9296C24.3875 13.9296 23.9261 14.3908 23.9261 14.9597C23.9261 15.5289 24.3875 15.9901 24.9565 15.9901C25.5254 15.9901 25.9866 15.5289 25.9866 14.9597C25.9866 14.3908 25.5254 13.9296 24.9565 13.9296ZM10.486 22.4624C10.486 21.8934 10.9472 21.4323 11.5161 21.4323C12.0851 21.4323 12.5463 21.8934 12.5463 22.4624C12.5463 23.0313 12.0851 23.4925 11.5161 23.4925C10.9472 23.4925 10.486 23.0313 10.486 22.4624ZM20.484 21.4323C19.9151 21.4323 19.4539 21.8934 19.4539 22.4624C19.4539 23.0313 19.9151 23.4925 20.484 23.4925C21.053 23.4925 21.5143 23.0313 21.5143 22.4624C21.5143 21.8934 21.053 21.4323 20.484 21.4323ZM6.38306 14.9597C6.38306 14.3908 6.84445 13.9296 7.41339 13.9296C7.98234 13.9296 8.44353 14.3908 8.44353 14.9597C8.44353 15.5289 7.98234 15.9901 7.41339 15.9901C6.84445 15.9901 6.38306 15.5289 6.38306 14.9597Z" fill="#979797"/>
</svg>
